<svg xmlns="http://www.w3.org/2000/svg" width="1760" height="980" viewBox="0 0 1760 980" font-family="Microsoft YaHei, Segoe UI, Arial, sans-serif">
<defs><linearGradient id="bg" x1="0" x2="0" y1="0" y2="1"><stop offset="0%" stop-color="#f8fafc"/><stop offset="100%" stop-color="#eef2f7"/></linearGradient></defs>
<rect x="0" y="0" width="1760" height="980" fill="url(#bg)"/>
<text x="60" y="54" font-size="30" font-weight="700" fill="#172033">SPX Gamma 价位图</text>
<text x="60" y="86" font-size="16" fill="#50607d">SPX 5,000.00 | ES 5,042.00 | 负 Gamma / 更容易扩张和加速</text>
<text x="60" y="112" font-size="14" fill="#6a7892">报价 2026-03-19 10:30:00 | DTE &lt;= 1 | 到期日 2026-03-19</text>
<rect x="60" y="130" width="250" height="30" rx="15" fill="#dbeafe"/>
<text x="78" y="150" font-size="13" font-weight="700" fill="#1d4ed8">当前价: SPX 5,000.00</text>
<rect x="330" y="130" width="260" height="30" rx="15" fill="#ffedd5"/>
<text x="348" y="150" font-size="13" font-weight="700" fill="#c2410c">Zero Gamma: ES 5,062.00</text>
<rect x="610" y="130" width="230" height="30" rx="15" fill="#ede9fe"/>
<text x="628" y="150" font-size="13" font-weight="700" fill="#6d28d9">净 GEX: -$221.55M</text>
<rect x="60" y="210" width="1150" height="710" rx="24" fill="#ffffff" stroke="#d6deeb"/>
<rect x="1240" y="210" width="480" height="710" rx="24" fill="#ffffff" stroke="#d6deeb"/>
<text x="84" y="240" font-size="14" fill="#5b6780">减速带看反应，破位区看速度。</text>
<text x="298" y="244" font-size="16" font-weight="700" fill="#18794e">支撑 GEX</text>
<text x="554" y="244" font-size="16" font-weight="700" fill="#1f3b5c">价格梯子</text>
<text x="820" y="244" font-size="16" font-weight="700" fill="#c92a2a">阻力 GEX</text>
<line x1="250" y1="258" x2="250" y2="892" stroke="#eef2f7" stroke-width="1"/>
<line x1="1014" y1="258" x2="1014" y2="892" stroke="#eef2f7" stroke-width="1"/>
<rect x="80" y="712.5" width="1110" height="173.5" fill="#ebfbee" opacity="0.82" rx="18"/>
<line x1="80" y1="712.5" x2="1190" y2="712.5" stroke="#87d6a5" stroke-width="1.5" stroke-dasharray="8 6"/>
<line x1="80" y1="886" x2="1190" y2="886" stroke="#87d6a5" stroke-width="1.5" stroke-dasharray="8 6"/>
<rect x="80" y="268" width="1110" height="173.5" fill="#fff5f5" opacity="0.88" rx="18"/>
<line x1="80" y1="268" x2="1190" y2="268" stroke="#ffb3b3" stroke-width="1.5" stroke-dasharray="8 6"/>
<line x1="80" y1="441.5" x2="1190" y2="441.5" stroke="#ffb3b3" stroke-width="1.5" stroke-dasharray="8 6"/>
<rect x="482" y="268" width="300" height="173.5" fill="#fff4e6" opacity="0.82" rx="16" stroke="#f08c00" stroke-width="1.2"/>
<rect x="482" y="712.5" width="300" height="173.5" fill="#fff0f0" opacity="0.84" rx="16" stroke="#e03131" stroke-width="1.2"/>
<line x1="80" y1="577.0" x2="1190" y2="577.0" stroke="#edf1f7" stroke-width="1"/>
<text x="252" y="582.0" font-size="12" text-anchor="end" fill="#637188">5,000</text>
<text x="1012" y="582.0" font-size="12" fill="#637188">5,042</text>
<line x1="80" y1="577.0" x2="1190" y2="577.0" stroke="#1971c2" stroke-width="3" opacity="0.75"/>
<line x1="80" y1="262.0" x2="1190" y2="262.0" stroke="#f08c00" stroke-width="2.5" stroke-dasharray="10 8" opacity="0.85"/>
<rect x="502" y="270" width="260" height="614" rx="18" fill="#f3f7fc" stroke="#d7e0ed"/>
<line x1="80" y1="892.0" x2="1190" y2="892.0" stroke="#eef2f7" stroke-width="1"/>
<rect x="325.0" y="880.0" width="147.0" height="24.0" fill="#199d76" opacity="0.80" rx="8"/>
<rect x="792" y="880.0" width="1.3475935828877006" height="24.0" fill="#e64946" opacity="0.80" rx="8"/>
<rect x="516" y="880.0" width="232" height="24.0" rx="10" fill="#ffffff" stroke="#d3deea"/>
<rect x="522" y="884.0" width="121.07927272727272" height="16.0" rx="7" fill="#f08c00" opacity="0.18"/>
<circle cx="532" cy="892.0" r="4.5" fill="#f08c00" opacity="0.85"/>
<text x="632.0" y="891.0" font-size="14" font-weight="700" text-anchor="middle" fill="#172033">ES 5,022</text>
<text x="632.0" y="905.0" font-size="11" text-anchor="middle" fill="#66768f">SPX 4,980</text>
<line x1="80" y1="734.5" x2="1190" y2="734.5" stroke="#eef2f7" stroke-width="1"/>
<rect x="262.0" y="722.5" width="210.0" height="24.0" fill="#199d76" opacity="0.80" rx="8"/>
<rect x="792" y="722.5" width="4.042780748663102" height="24.0" fill="#e64946" opacity="0.80" rx="8"/>
<rect x="516" y="722.5" width="232" height="24.0" rx="10" fill="#ffffff" stroke="#d3deea"/>
<rect x="522" y="726.5" width="164.8378181818182" height="16.0" rx="7" fill="#f08c00" opacity="0.18"/>
<circle cx="532" cy="734.5" r="4.5" fill="#f08c00" opacity="0.85"/>
<text x="632.0" y="733.5" font-size="14" font-weight="700" text-anchor="middle" fill="#172033">ES 5,032</text>
<text x="632.0" y="747.5" font-size="11" text-anchor="middle" fill="#66768f">SPX 4,990</text>
<line x1="80" y1="577.0" x2="1190" y2="577.0" stroke="#eef2f7" stroke-width="1"/>
<rect x="325.0" y="565.0" width="147.0" height="24.0" fill="#199d76" opacity="0.80" rx="8"/>
<rect x="792" y="565.0" width="134.75935828877004" height="24.0" fill="#e64946" opacity="0.80" rx="8"/>
<rect x="516" y="565.0" width="232" height="24.0" rx="10" fill="#ffffff" stroke="#d3deea"/>
<rect x="522" y="569.0" width="91.27272727272728" height="16.0" rx="7" fill="#1f9d74" opacity="0.18"/>
<circle cx="532" cy="577.0" r="4.5" fill="#1f9d74" opacity="0.85"/>
<text x="632.0" y="576.0" font-size="14" font-weight="700" text-anchor="middle" fill="#172033">ES 5,042</text>
<text x="632.0" y="590.0" font-size="11" text-anchor="middle" fill="#66768f">SPX 5,000</text>
<line x1="80" y1="419.5" x2="1190" y2="419.5" stroke="#eef2f7" stroke-width="1"/>
<rect x="368.05" y="407.5" width="103.94999999999999" height="24.0" fill="#199d76" opacity="0.80" rx="8"/>
<rect x="792" y="407.5" width="210.0" height="24.0" fill="#e64946" opacity="0.80" rx="8"/>
<rect x="516" y="407.5" width="232" height="24.0" rx="10" fill="#ffffff" stroke="#d3deea"/>
<rect x="522" y="411.5" width="230.0" height="16.0" rx="7" fill="#1f9d74" opacity="0.18"/>
<circle cx="532" cy="419.5" r="4.5" fill="#1f9d74" opacity="0.85"/>
<text x="632.0" y="418.5" font-size="14" font-weight="700" text-anchor="middle" fill="#172033">ES 5,052</text>
<text x="632.0" y="432.5" font-size="11" text-anchor="middle" fill="#66768f">SPX 5,010</text>
<line x1="80" y1="262.0" x2="1190" y2="262.0" stroke="#eef2f7" stroke-width="1"/>
<rect x="424.75" y="250.0" width="47.25" height="24.0" fill="#199d76" opacity="0.80" rx="8"/>
<rect x="792" y="250.0" width="151.6042780748663" height="24.0" fill="#e64946" opacity="0.80" rx="8"/>
<rect x="516" y="250.0" width="232" height="24.0" rx="10" fill="#ffffff" stroke="#d3deea"/>
<rect x="522" y="254.0" width="190.36363636363632" height="16.0" rx="7" fill="#1f9d74" opacity="0.18"/>
<circle cx="532" cy="262.0" r="4.5" fill="#1f9d74" opacity="0.85"/>
<text x="632.0" y="261.0" font-size="14" font-weight="700" text-anchor="middle" fill="#172033">ES 5,062</text>
<text x="632.0" y="275.0" font-size="11" text-anchor="middle" fill="#66768f">SPX 5,020</text>
<line x1="248" y1="712.5" x2="248" y2="886.0" stroke="#2b8a3e" stroke-width="2.5" opacity="0.9"/>
<line x1="248" y1="712.5" x2="260" y2="712.5" stroke="#2b8a3e" stroke-width="2.5" opacity="0.9"/>
<line x1="248" y1="886.0" x2="260" y2="886.0" stroke="#2b8a3e" stroke-width="2.5" opacity="0.9"/>
<line x1="248" y1="799.25" x2="238" y2="799.25" stroke="#2b8a3e" stroke-width="2" opacity="0.75"/>
<circle cx="248" cy="799.25" r="4.5" fill="#2b8a3e" opacity="0.88"/>
<rect x="88" y="762.75" width="150" height="73" rx="16" fill="#ebfbee" stroke="#2b8a3e" stroke-width="1.4"/>
<text x="163.0" y="786.75" font-size="13" font-weight="700" fill="#1f6d31" text-anchor="middle">下方支撑带</text>
<text x="163.0" y="803.75" font-size="13" font-weight="700" fill="#1f6d31" text-anchor="middle">ES 5,022 - 5,032</text>
<text x="163.0" y="820.75" font-size="13" font-weight="700" fill="#1f6d31" text-anchor="middle">到位易承接</text>
<line x1="248" y1="712.5" x2="248" y2="886.0" stroke="#e03131" stroke-width="2.5" opacity="0.9"/>
<line x1="248" y1="712.5" x2="260" y2="712.5" stroke="#e03131" stroke-width="2.5" opacity="0.9"/>
<line x1="248" y1="886.0" x2="260" y2="886.0" stroke="#e03131" stroke-width="2.5" opacity="0.9"/>
<line x1="248" y1="799.25" x2="238" y2="888.25" stroke="#e03131" stroke-width="2" opacity="0.75"/>
<circle cx="248" cy="799.25" r="4.5" fill="#e03131" opacity="0.88"/>
<rect x="88" y="851.75" width="150" height="73" rx="16" fill="#fff5f5" stroke="#e03131" stroke-width="1.4"/>
<text x="163.0" y="875.75" font-size="13" font-weight="700" fill="#9d2121" text-anchor="middle">下破加速区</text>
<text x="163.0" y="892.75" font-size="13" font-weight="700" fill="#9d2121" text-anchor="middle">破 ES 5,032</text>
<text x="163.0" y="909.75" font-size="13" font-weight="700" fill="#9d2121" text-anchor="middle">先看 ES 5,022</text>
<line x1="1016" y1="268.0" x2="1016" y2="441.5" stroke="#d9485f" stroke-width="2.5" opacity="0.9"/>
<line x1="1016" y1="268.0" x2="1004" y2="268.0" stroke="#d9485f" stroke-width="2.5" opacity="0.9"/>
<line x1="1016" y1="441.5" x2="1004" y2="441.5" stroke="#d9485f" stroke-width="2.5" opacity="0.9"/>
<line x1="1016" y1="354.75" x2="1026" y2="354.75" stroke="#d9485f" stroke-width="2" opacity="0.75"/>
<circle cx="1016" cy="354.75" r="4.5" fill="#d9485f" opacity="0.88"/>
<rect x="1026" y="318.25" width="156" height="73" rx="16" fill="#fff1f2" stroke="#d9485f" stroke-width="1.4"/>
<text x="1104.0" y="342.25" font-size="13" font-weight="700" fill="#8c1d2c" text-anchor="middle">上方阻力带</text>
<text x="1104.0" y="359.25" font-size="13" font-weight="700" fill="#8c1d2c" text-anchor="middle">ES 5,052 - 5,062</text>
<text x="1104.0" y="376.25" font-size="13" font-weight="700" fill="#8c1d2c" text-anchor="middle">到位易变慢</text>
<line x1="1016" y1="268.0" x2="1016" y2="441.5" stroke="#f08c00" stroke-width="2.5" opacity="0.9"/>
<line x1="1016" y1="268.0" x2="1004" y2="268.0" stroke="#f08c00" stroke-width="2.5" opacity="0.9"/>
<line x1="1016" y1="441.5" x2="1004" y2="441.5" stroke="#f08c00" stroke-width="2.5" opacity="0.9"/>
<line x1="1016" y1="354.75" x2="1026" y2="443.75" stroke="#f08c00" stroke-width="2" opacity="0.75"/>
<circle cx="1016" cy="354.75" r="4.5" fill="#f08c00" opacity="0.88"/>
<rect x="1026" y="407.25" width="156" height="73" rx="16" fill="#fff4e6" stroke="#f08c00" stroke-width="1.4"/>
<text x="1104.0" y="431.25" font-size="13" font-weight="700" fill="#9c5b00" text-anchor="middle">上破加速区</text>
<text x="1104.0" y="448.25" font-size="13" font-weight="700" fill="#9c5b00" text-anchor="middle">过 ES 5,052</text>
<text x="1104.0" y="465.25" font-size="13" font-weight="700" fill="#9c5b00" text-anchor="middle">先看 ES 5,062</text>
<text x="1268" y="246" font-size="24" font-weight="700" fill="#172033">交易提醒</text>
<text x="1268" y="274" font-size="14" fill="#5b6780">主图看结构，右侧看结论。</text>
<text x="1268" y="306" font-size="18" font-weight="700" fill="#172033">核心结论</text>
<text x="1268" y="332" font-size="15" font-weight="500" fill="#24334d">环境: 负 Gamma / 更容易扩张和加速</text>
<text x="1268" y="354" font-size="15" font-weight="500" fill="#24334d">上方减速: ES 5,052 / 5,062</text>
<text x="1268" y="376" font-size="15" font-weight="500" fill="#24334d">下方承接: ES 5,032 / 5,022</text>
<text x="1268" y="398" font-size="15" font-weight="500" fill="#24334d">上破计划: ES 5,052 -&gt; ES 5,062</text>
<text x="1268" y="420" font-size="15" font-weight="500" fill="#24334d">下破计划: ES 5,032 -&gt; ES 5,022</text>
<text x="1268" y="442" font-size="15" font-weight="500" fill="#24334d">Zero Gamma: ES 5,062</text>
<rect x="1260" y="476" width="440" height="1" fill="#e6ebf2"/>
</svg>