<svg xmlns="http://www.w3.org/2000/svg" width="1760" height="1050" viewBox="0 0 1760 1050" font-family="Microsoft YaHei, Segoe UI, Arial, sans-serif">
<defs><linearGradient id="bg" x1="0" x2="0" y1="0" y2="1"><stop offset="0%" stop-color="#f8fafc"/><stop offset="100%" stop-color="#eef2f7"/></linearGradient></defs>
<rect x="0" y="0" width="1760" height="1050" fill="url(#bg)"/>
<text x="60" y="54" font-size="30" font-weight="700" fill="#172033">SPX Gamma 价位图</text>
<text x="60" y="86" font-size="16" fill="#50607d">SPX 6,578.01 | ES 6,627.00 | 负 Gamma / 更容易扩张和加速</text>
<text x="60" y="112" font-size="14" fill="#6a7892">报价 2026-03-19 14:19:00 | DTE &lt;= 7 | 到期日 2026-03-19, 2026-03-20, 2026-03-23, 2026-03-24, 2026-03-25, 2026-03-26</text>
<rect x="60" y="130" width="250" height="30" rx="15" fill="#dbeafe"/>
<text x="78" y="150" font-size="13" font-weight="700" fill="#1d4ed8">当前价: SPX 6,578.01</text>
<rect x="330" y="130" width="260" height="30" rx="15" fill="#ffedd5"/>
<text x="348" y="150" font-size="13" font-weight="700" fill="#c2410c">Zero Gamma: ES 6,578.99</text>
<rect x="610" y="130" width="230" height="30" rx="15" fill="#ede9fe"/>
<text x="628" y="150" font-size="13" font-weight="700" fill="#6d28d9">净 GEX: -$22.03B</text>
<rect x="60" y="210" width="1150" height="780" rx="24" fill="#ffffff" stroke="#d6deeb"/>
<rect x="1240" y="210" width="480" height="780" rx="24" fill="#ffffff" stroke="#d6deeb"/>
<text x="84" y="240" font-size="14" fill="#5b6780">减速带看反应，破位区看速度。</text>
<text x="298" y="244" font-size="16" font-weight="700" fill="#18794e">支撑 GEX</text>
<text x="554" y="244" font-size="16" font-weight="700" fill="#1f3b5c">价格梯子</text>
<text x="820" y="244" font-size="16" font-weight="700" fill="#c92a2a">阻力 GEX</text>
<line x1="250" y1="258" x2="250" y2="962" stroke="#eef2f7" stroke-width="1"/>
<line x1="1014" y1="258" x2="1014" y2="962" stroke="#eef2f7" stroke-width="1"/>
<rect x="80" y="706.6666666666666" width="1110" height="90.66666666666663" fill="#ebfbee" opacity="0.82" rx="18"/>
<line x1="80" y1="706.6666666666666" x2="1190" y2="706.6666666666666" stroke="#87d6a5" stroke-width="1.5" stroke-dasharray="8 6"/>
<line x1="80" y1="797.3333333333333" x2="1190" y2="797.3333333333333" stroke="#87d6a5" stroke-width="1.5" stroke-dasharray="8 6"/>
<rect x="80" y="473.3333333333333" width="1110" height="137.33333333333343" fill="#fff5f5" opacity="0.88" rx="18"/>
<line x1="80" y1="473.3333333333333" x2="1190" y2="473.3333333333333" stroke="#ffb3b3" stroke-width="1.5" stroke-dasharray="8 6"/>
<line x1="80" y1="610.6666666666667" x2="1190" y2="610.6666666666667" stroke="#ffb3b3" stroke-width="1.5" stroke-dasharray="8 6"/>
<rect x="482" y="268" width="300" height="249.33333333333326" fill="#fff4e6" opacity="0.82" rx="16" stroke="#f08c00" stroke-width="1.2"/>
<rect x="482" y="753.3333333333333" width="300" height="202.66666666666674" fill="#fff0f0" opacity="0.84" rx="16" stroke="#e03131" stroke-width="1.2"/>
<line x1="80" y1="962.0" x2="1190" y2="962.0" stroke="#edf1f7" stroke-width="1"/>
<text x="252" y="967.0" font-size="12" text-anchor="end" fill="#637188">6,550</text>
<text x="1012" y="967.0" font-size="12" fill="#637188">6,599</text>
<line x1="80" y1="728.6666666666666" x2="1190" y2="728.6666666666666" stroke="#edf1f7" stroke-width="1"/>
<text x="252" y="733.6666666666666" font-size="12" text-anchor="end" fill="#637188">6,575</text>
<text x="1012" y="733.6666666666666" font-size="12" fill="#637188">6,624</text>
<line x1="80" y1="495.3333333333333" x2="1190" y2="495.3333333333333" stroke="#edf1f7" stroke-width="1"/>
<text x="252" y="500.3333333333333" font-size="12" text-anchor="end" fill="#637188">6,600</text>
<text x="1012" y="500.3333333333333" font-size="12" fill="#637188">6,649</text>
<line x1="80" y1="262.0" x2="1190" y2="262.0" stroke="#edf1f7" stroke-width="1"/>
<text x="252" y="267.0" font-size="12" text-anchor="end" fill="#637188">6,625</text>
<text x="1012" y="267.0" font-size="12" fill="#637188">6,674</text>
<line x1="80" y1="700.5752000000018" x2="1190" y2="700.5752000000018" stroke="#1971c2" stroke-width="3" opacity="0.75"/>
<rect x="502" y="270" width="260" height="684" rx="18" fill="#f3f7fc" stroke="#d7e0ed"/>
<line x1="80" y1="962.0" x2="1190" y2="962.0" stroke="#eef2f7" stroke-width="1"/>
<rect x="368.04613353023035" y="950.0" width="103.95386646976968" height="24.0" fill="#199d76" opacity="0.80" rx="8"/>
<rect x="792" y="950.0" width="145.60170814418746" height="24.0" fill="#e64946" opacity="0.80" rx="8"/>
<rect x="516" y="950.0" width="232" height="24.0" rx="10" fill="#ffffff" stroke="#d3deea"/>
<rect x="522" y="954.0" width="116.86150759014363" height="16.0" rx="7" fill="#f08c00" opacity="0.18"/>
<circle cx="532" cy="962.0" r="4.5" fill="#f08c00" opacity="0.85"/>
<text x="632.0" y="961.0" font-size="14" font-weight="700" text-anchor="middle" fill="#172033">ES 6,599</text>
<text x="632.0" y="975.0" font-size="11" text-anchor="middle" fill="#66768f">SPX 6,550</text>
<line x1="80" y1="775.3333333333333" x2="1190" y2="775.3333333333333" stroke="#eef2f7" stroke-width="1"/>
<rect x="372.46325220799133" y="763.3333333333333" width="99.53674779200864" height="24.0" fill="#199d76" opacity="0.80" rx="8"/>
<rect x="792" y="763.3333333333333" width="89.57583478370087" height="24.0" fill="#e64946" opacity="0.80" rx="8"/>
<rect x="516" y="763.3333333333333" width="232" height="24.0" rx="10" fill="#ffffff" stroke="#d3deea"/>
<rect x="522" y="767.3333333333333" width="116.05869170575859" height="16.0" rx="7" fill="#f08c00" opacity="0.18"/>
<circle cx="532" cy="775.3333333333333" r="4.5" fill="#f08c00" opacity="0.85"/>
<text x="632.0" y="774.3333333333333" font-size="14" font-weight="700" text-anchor="middle" fill="#172033">ES 6,619</text>
<text x="632.0" y="788.3333333333333" font-size="11" text-anchor="middle" fill="#66768f">SPX 6,570</text>
<line x1="80" y1="728.6666666666666" x2="1190" y2="728.6666666666666" stroke="#eef2f7" stroke-width="1"/>
<rect x="350.6900079516088" y="716.6666666666666" width="121.30999204839124" height="24.0" fill="#199d76" opacity="0.80" rx="8"/>
<rect x="792" y="716.6666666666666" width="49.04760195934186" height="24.0" fill="#e64946" opacity="0.80" rx="8"/>
<rect x="516" y="716.6666666666666" width="232" height="24.0" rx="10" fill="#ffffff" stroke="#d3deea"/>
<rect x="522" y="720.6666666666666" width="143.22767137205324" height="16.0" rx="7" fill="#f08c00" opacity="0.18"/>
<circle cx="532" cy="728.6666666666666" r="4.5" fill="#f08c00" opacity="0.85"/>
<text x="632.0" y="727.6666666666666" font-size="14" font-weight="700" text-anchor="middle" fill="#172033">ES 6,624</text>
<text x="632.0" y="741.6666666666666" font-size="11" text-anchor="middle" fill="#66768f">SPX 6,575</text>
<line x1="80" y1="682.0" x2="1190" y2="682.0" stroke="#eef2f7" stroke-width="1"/>
<rect x="348.6732811745662" y="670.0" width="123.3267188254338" height="24.0" fill="#199d76" opacity="0.80" rx="8"/>
<rect x="792" y="670.0" width="58.765184002296664" height="24.0" fill="#e64946" opacity="0.80" rx="8"/>
<rect x="516" y="670.0" width="232" height="24.0" rx="10" fill="#ffffff" stroke="#d3deea"/>
<rect x="522" y="674.0" width="144.7568050328169" height="16.0" rx="7" fill="#f08c00" opacity="0.18"/>
<circle cx="532" cy="682.0" r="4.5" fill="#f08c00" opacity="0.85"/>
<text x="632.0" y="681.0" font-size="14" font-weight="700" text-anchor="middle" fill="#172033">ES 6,629</text>
<text x="632.0" y="695.0" font-size="11" text-anchor="middle" fill="#66768f">SPX 6,580</text>
<line x1="80" y1="588.6666666666667" x2="1190" y2="588.6666666666667" stroke="#eef2f7" stroke-width="1"/>
<rect x="385.18582625734814" y="576.6666666666667" width="86.81417374265189" height="24.0" fill="#199d76" opacity="0.80" rx="8"/>
<rect x="792" y="576.6666666666667" width="171.50270037500223" height="24.0" fill="#e64946" opacity="0.80" rx="8"/>
<rect x="516" y="576.6666666666667" width="232" height="24.0" rx="10" fill="#ffffff" stroke="#d3deea"/>
<rect x="522" y="580.6666666666667" width="95.91428198621955" height="16.0" rx="7" fill="#f08c00" opacity="0.18"/>
<circle cx="532" cy="588.6666666666667" r="4.5" fill="#f08c00" opacity="0.85"/>
<text x="632.0" y="587.6666666666667" font-size="14" font-weight="700" text-anchor="middle" fill="#172033">ES 6,639</text>
<text x="632.0" y="601.6666666666667" font-size="11" text-anchor="middle" fill="#66768f">SPX 6,590</text>
<line x1="80" y1="495.3333333333333" x2="1190" y2="495.3333333333333" stroke="#eef2f7" stroke-width="1"/>
<rect x="262.0" y="483.3333333333333" width="210.0" height="24.0" fill="#199d76" opacity="0.80" rx="8"/>
<rect x="792" y="483.3333333333333" width="210.0" height="24.0" fill="#e64946" opacity="0.80" rx="8"/>
<rect x="516" y="483.3333333333333" width="232" height="24.0" rx="10" fill="#ffffff" stroke="#d3deea"/>
<rect x="522" y="487.3333333333333" width="230.0" height="16.0" rx="7" fill="#f08c00" opacity="0.18"/>
<circle cx="532" cy="495.3333333333333" r="4.5" fill="#f08c00" opacity="0.85"/>
<text x="632.0" y="494.3333333333333" font-size="14" font-weight="700" text-anchor="middle" fill="#172033">ES 6,649</text>
<text x="632.0" y="508.3333333333333" font-size="11" text-anchor="middle" fill="#66768f">SPX 6,600</text>
<line x1="80" y1="262.0" x2="1190" y2="262.0" stroke="#eef2f7" stroke-width="1"/>
<rect x="447.44990486468066" y="250.0" width="24.550095135319346" height="24.0" fill="#199d76" opacity="0.80" rx="8"/>
<rect x="792" y="250.0" width="125.88771463944163" height="24.0" fill="#e64946" opacity="0.80" rx="8"/>
<rect x="516" y="250.0" width="232" height="24.0" rx="10" fill="#ffffff" stroke="#d3deea"/>
<rect x="522" y="254.0" width="30.057972152793525" height="16.0" rx="7" fill="#f08c00" opacity="0.18"/>
<circle cx="532" cy="262.0" r="4.5" fill="#f08c00" opacity="0.85"/>
<text x="632.0" y="261.0" font-size="14" font-weight="700" text-anchor="middle" fill="#172033">ES 6,674</text>
<text x="632.0" y="275.0" font-size="11" text-anchor="middle" fill="#66768f">SPX 6,625</text>
<line x1="248" y1="706.6666666666666" x2="248" y2="797.3333333333333" stroke="#2b8a3e" stroke-width="2.5" opacity="0.9"/>
<line x1="248" y1="706.6666666666666" x2="260" y2="706.6666666666666" stroke="#2b8a3e" stroke-width="2.5" opacity="0.9"/>
<line x1="248" y1="797.3333333333333" x2="260" y2="797.3333333333333" stroke="#2b8a3e" stroke-width="2.5" opacity="0.9"/>
<line x1="248" y1="752.0" x2="238" y2="752.0" stroke="#2b8a3e" stroke-width="2" opacity="0.75"/>
<circle cx="248" cy="752.0" r="4.5" fill="#2b8a3e" opacity="0.88"/>
<rect x="88" y="715.5" width="150" height="73" rx="16" fill="#ebfbee" stroke="#2b8a3e" stroke-width="1.4"/>
<text x="163.0" y="739.5" font-size="13" font-weight="700" fill="#1f6d31" text-anchor="middle">下方支撑带</text>
<text x="163.0" y="756.5" font-size="13" font-weight="700" fill="#1f6d31" text-anchor="middle">ES 6,619 - 6,624</text>
<text x="163.0" y="773.5" font-size="13" font-weight="700" fill="#1f6d31" text-anchor="middle">到位易承接</text>
<line x1="248" y1="753.3333333333333" x2="248" y2="956.0" stroke="#e03131" stroke-width="2.5" opacity="0.9"/>
<line x1="248" y1="753.3333333333333" x2="260" y2="753.3333333333333" stroke="#e03131" stroke-width="2.5" opacity="0.9"/>
<line x1="248" y1="956.0" x2="260" y2="956.0" stroke="#e03131" stroke-width="2.5" opacity="0.9"/>
<line x1="248" y1="854.6666666666666" x2="238" y2="854.6666666666666" stroke="#e03131" stroke-width="2" opacity="0.75"/>
<circle cx="248" cy="854.6666666666666" r="4.5" fill="#e03131" opacity="0.88"/>
<rect x="88" y="818.1666666666666" width="150" height="73" rx="16" fill="#fff5f5" stroke="#e03131" stroke-width="1.4"/>
<text x="163.0" y="842.1666666666666" font-size="13" font-weight="700" fill="#9d2121" text-anchor="middle">下破加速区</text>
<text x="163.0" y="859.1666666666666" font-size="13" font-weight="700" fill="#9d2121" text-anchor="middle">破 ES 6,619</text>
<text x="163.0" y="876.1666666666666" font-size="13" font-weight="700" fill="#9d2121" text-anchor="middle">先看 ES 6,599</text>
<line x1="1016" y1="473.3333333333333" x2="1016" y2="610.6666666666667" stroke="#d9485f" stroke-width="2.5" opacity="0.9"/>
<line x1="1016" y1="473.3333333333333" x2="1004" y2="473.3333333333333" stroke="#d9485f" stroke-width="2.5" opacity="0.9"/>
<line x1="1016" y1="610.6666666666667" x2="1004" y2="610.6666666666667" stroke="#d9485f" stroke-width="2.5" opacity="0.9"/>
<line x1="1016" y1="542.0" x2="1026" y2="542.0" stroke="#d9485f" stroke-width="2" opacity="0.75"/>
<circle cx="1016" cy="542.0" r="4.5" fill="#d9485f" opacity="0.88"/>
<rect x="1026" y="505.5" width="156" height="73" rx="16" fill="#fff1f2" stroke="#d9485f" stroke-width="1.4"/>
<text x="1104.0" y="529.5" font-size="13" font-weight="700" fill="#8c1d2c" text-anchor="middle">上方阻力带</text>
<text x="1104.0" y="546.5" font-size="13" font-weight="700" fill="#8c1d2c" text-anchor="middle">ES 6,639 - 6,649</text>
<text x="1104.0" y="563.5" font-size="13" font-weight="700" fill="#8c1d2c" text-anchor="middle">到位易变慢</text>
<line x1="1016" y1="268.0" x2="1016" y2="517.3333333333333" stroke="#f08c00" stroke-width="2.5" opacity="0.9"/>
<line x1="1016" y1="268.0" x2="1004" y2="268.0" stroke="#f08c00" stroke-width="2.5" opacity="0.9"/>
<line x1="1016" y1="517.3333333333333" x2="1004" y2="517.3333333333333" stroke="#f08c00" stroke-width="2.5" opacity="0.9"/>
<line x1="1016" y1="392.66666666666663" x2="1026" y2="392.66666666666663" stroke="#f08c00" stroke-width="2" opacity="0.75"/>
<circle cx="1016" cy="392.66666666666663" r="4.5" fill="#f08c00" opacity="0.88"/>
<rect x="1026" y="356.16666666666663" width="156" height="73" rx="16" fill="#fff4e6" stroke="#f08c00" stroke-width="1.4"/>
<text x="1104.0" y="380.16666666666663" font-size="13" font-weight="700" fill="#9c5b00" text-anchor="middle">上破加速区</text>
<text x="1104.0" y="397.16666666666663" font-size="13" font-weight="700" fill="#9c5b00" text-anchor="middle">过 ES 6,649</text>
<text x="1104.0" y="414.16666666666663" font-size="13" font-weight="700" fill="#9c5b00" text-anchor="middle">先看 ES 6,674</text>
<text x="1268" y="246" font-size="24" font-weight="700" fill="#172033">交易提醒</text>
<text x="1268" y="274" font-size="14" fill="#5b6780">主图看结构，右侧看结论。</text>
<text x="1268" y="306" font-size="18" font-weight="700" fill="#172033">核心结论</text>
<text x="1268" y="332" font-size="15" font-weight="500" fill="#24334d">环境: 负 Gamma / 更容易扩张和加速</text>
<text x="1268" y="354" font-size="15" font-weight="500" fill="#24334d">上方减速: ES 6,639 / 6,649 / 6,6</text>
<text x="1268" y="376" font-size="15" font-weight="500" fill="#24334d">74</text>
<text x="1268" y="398" font-size="15" font-weight="500" fill="#24334d">下方承接: ES 6,624 / 6,619 / 6,5</text>
<text x="1268" y="420" font-size="15" font-weight="500" fill="#24334d">99</text>
<text x="1268" y="442" font-size="15" font-weight="500" fill="#24334d">上破计划: ES 6,649 -&gt; ES 6,674</text>
<text x="1268" y="464" font-size="15" font-weight="500" fill="#24334d">下破计划: ES 6,619 -&gt; ES 6,599</text>
<text x="1268" y="486" font-size="15" font-weight="500" fill="#24334d">Zero Gamma: ES 6,579</text>
<rect x="1260" y="520" width="440" height="1" fill="#e6ebf2"/>
<text x="1268" y="548" font-size="18" font-weight="700" fill="#172033">AI 盘面解读</text>
<text x="1694" y="548" font-size="12" text-anchor="end" fill="#7b8798">deepseek / deepseek-chat</text>
<rect x="1260" y="558" width="440" height="220" rx="16" fill="#f8fafc" stroke="#d8e0ec"/>
<text x="1276" y="586" font-size="15" font-weight="400" fill="#24334d">环境: 负Gamma环境，盘面更容易扩张和加速。</text>
<text x="1276" y="608" font-size="15" font-weight="400" fill="#24334d">阻力: 关键阻力在ES 6649，下一目标在ES 6</text>
<text x="1276" y="630" font-size="15" font-weight="400" fill="#24334d">674。</text>
<text x="1276" y="652" font-size="15" font-weight="400" fill="#24334d">支撑: 关键支撑在ES 6624，下一目标在ES 6</text>
<text x="1276" y="674" font-size="15" font-weight="400" fill="#24334d">619。</text>
<text x="1276" y="696" font-size="15" font-weight="400" fill="#24334d">上破: 过ES 6649，先看ES 6674。</text>
<text x="1276" y="718" font-size="15" font-weight="400" fill="#24334d">下破: 破ES 6624，先看ES 6619。</text>
<text x="1276" y="740" font-size="15" font-weight="400" fill="#24334d">执行: 以上结论基于proxy GEX和期权链聚合数</text>
<text x="1276" y="762" font-size="15" font-weight="400" fill="#24334d">据。</text>
</svg>