<svg xmlns="http://www.w3.org/2000/svg" width="1720" height="960" viewBox="0 0 1720 960" font-family="Microsoft YaHei, Segoe UI, Arial, sans-serif">
<defs><linearGradient id="bg" x1="0" x2="0" y1="0" y2="1"><stop offset="0%" stop-color="#f8fafc"/><stop offset="100%" stop-color="#eef2f7"/></linearGradient></defs>
<rect x="0" y="0" width="1720" height="960" fill="url(#bg)"/>
<text x="60" y="54" font-size="30" font-weight="700" fill="#172033">SPX Gamma 价位图</text>
<text x="60" y="84" font-size="16" fill="#50607d">SPX 6,578.01 | ES 6,627.00 | 负 Gamma / 更容易扩张和加速</text>
<text x="60" y="108" font-size="14" fill="#6a7892">报价 2026-03-19 14:19:00 | DTE &lt;= 7 | 到期日 2026-03-19, 2026-03-20, 2026-03-23, 2026-03-24, 2026-03-25, 2026-03-26</text>
<rect x="60" y="125" width="220" height="32" rx="16" fill="#dbeafe"/>
<text x="78" y="146" font-size="14" font-weight="700" fill="#1d4ed8">当前价: SPX 6,578.01</text>
<rect x="300" y="125" width="250" height="32" rx="16" fill="#ffedd5"/>
<text x="318" y="146" font-size="14" font-weight="700" fill="#c2410c">Zero Gamma: SPX 6,530.00</text>
<rect x="570" y="125" width="220" height="32" rx="16" fill="#ede9fe"/>
<text x="588" y="146" font-size="14" font-weight="700" fill="#6d28d9">净 GEX: -$22.03B</text>
<rect x="70" y="170" width="1070" height="700" rx="24" fill="#ffffff" stroke="#d6deeb"/>
<text x="98" y="152" font-size="16" font-weight="700" fill="#18794e">支撑压力</text>
<text x="522" y="152" font-size="16" font-weight="700" fill="#1f3b5c">价格梯子</text>
<text x="740" y="152" font-size="16" font-weight="700" fill="#c92a2a">阻力压力</text>
<text x="66" y="152" font-size="13" fill="#6a7892">SPX</text>
<text x="1148" y="152" font-size="13" fill="#6a7892">ES</text>
<rect x="730" y="354.2105263157895" width="392" height="73.68421052631578" fill="#ffe8cc" opacity="0.55" rx="10"/>
<polygon points="1130,391.0526315789474 1102,354.2105263157895 1102,427.89473684210526" fill="#f08c00" opacity="0.75"/>
<text x="740" y="383.0526315789474" font-size="13" font-weight="700" fill="#9a6700">上破这里后容易加速 -&gt; 6,648.99</text>
<rect x="730" y="170.0" width="392" height="184.21052631578948" fill="#ffe8cc" opacity="0.55" rx="10"/>
<polygon points="1130,262.10526315789474 1102,170.0 1102,354.2105263157895" fill="#f08c00" opacity="0.75"/>
<text x="740" y="254.10526315789474" font-size="13" font-weight="700" fill="#9a6700">上破这里后容易加速 -&gt; 6,673.99</text>
<rect x="88" y="538.421052631579" width="377" height="36.84210526315792" fill="#ffe3e3" opacity="0.65" rx="10"/>
<polygon points="80,556.8421052631579 108,538.421052631579 108,575.2631578947369" fill="#e03131" opacity="0.75"/>
<text x="116" y="548.8421052631579" font-size="13" font-weight="700" fill="#c92a2a">下破这里后容易加速 -&gt; 6,618.99</text>
<rect x="88" y="575.2631578947369" width="377" height="147.36842105263156" fill="#ffe3e3" opacity="0.65" rx="10"/>
<polygon points="80,648.9473684210527 108,575.2631578947369 108,722.6315789473684" fill="#e03131" opacity="0.75"/>
<text x="116" y="640.9473684210527" font-size="13" font-weight="700" fill="#c92a2a">下破这里后容易加速 -&gt; 6,598.99</text>
<line x1="70" y1="722.6315789473684" x2="1140" y2="722.6315789473684" stroke="#edf1f7" stroke-width="1"/>
<text x="60" y="727.6315789473684" font-size="13" text-anchor="end" fill="#637188">6,550.00</text>
<text x="1150" y="727.6315789473684" font-size="13" fill="#637188">6,598.99</text>
<line x1="70" y1="538.421052631579" x2="1140" y2="538.421052631579" stroke="#edf1f7" stroke-width="1"/>
<text x="60" y="543.421052631579" font-size="13" text-anchor="end" fill="#637188">6,575.00</text>
<text x="1150" y="543.421052631579" font-size="13" fill="#637188">6,623.99</text>
<line x1="70" y1="354.2105263157895" x2="1140" y2="354.2105263157895" stroke="#edf1f7" stroke-width="1"/>
<text x="60" y="359.2105263157895" font-size="13" text-anchor="end" fill="#637188">6,600.00</text>
<text x="1150" y="359.2105263157895" font-size="13" fill="#637188">6,648.99</text>
<line x1="70" y1="170.0" x2="1140" y2="170.0" stroke="#edf1f7" stroke-width="1"/>
<text x="60" y="175.0" font-size="13" text-anchor="end" fill="#637188">6,625.00</text>
<text x="1150" y="175.0" font-size="13" fill="#637188">6,673.99</text>
<rect x="500" y="178" width="190" height="684" rx="18" fill="#f3f7fc" stroke="#d7e0ed"/>
<line x1="80" y1="870.0" x2="1130" y2="870.0" stroke="#eef2f7" stroke-width="1"/>
<rect x="387.66562775111464" y="858.0" width="67.33437224888536" height="24.0" fill="#199d76" opacity="0.78" rx="8"/>
<rect x="740" y="858.0" width="24.429332711320043" height="24.0" fill="#e64946" opacity="0.78" rx="8"/>
<rect x="512" y="858.0" width="166" height="24.0" rx="9" fill="#ffffff" stroke="#d3deea"/>
<rect x="518" y="862.0" width="40.382936460179465" height="16.0" rx="7" fill="#f08c00" opacity="0.18"/>
<text x="595.0" y="869.0" font-size="14" font-weight="700" text-anchor="middle" fill="#172033">6,530.00</text>
<text x="595.0" y="883.0" font-size="11" text-anchor="middle" fill="#66768f">ES 6,578.99</text>
<circle cx="524" cy="870.0" r="4.5" fill="#f08c00" opacity="0.82"/>
<line x1="80" y1="833.1578947368421" x2="1130" y2="833.1578947368421" stroke="#eef2f7" stroke-width="1"/>
<rect x="423.2333229205123" y="821.1578947368421" width="31.76667707948769" height="24.0" fill="#199d76" opacity="0.78" rx="8"/>
<rect x="740" y="821.1578947368421" width="2.422909227926004" height="24.0" fill="#e64946" opacity="0.78" rx="8"/>
<rect x="512" y="821.1578947368421" width="166" height="24.0" rx="9" fill="#ffffff" stroke="#d3deea"/>
<rect x="518" y="825.1578947368421" width="24.599955154621547" height="16.0" rx="7" fill="#f08c00" opacity="0.18"/>
<text x="595.0" y="832.1578947368421" font-size="14" font-weight="700" text-anchor="middle" fill="#172033">6,535.00</text>
<text x="595.0" y="846.1578947368421" font-size="11" text-anchor="middle" fill="#66768f">ES 6,583.99</text>
<circle cx="524" cy="833.1578947368421" r="4.5" fill="#f08c00" opacity="0.82"/>
<line x1="80" y1="796.3157894736842" x2="1130" y2="796.3157894736842" stroke="#eef2f7" stroke-width="1"/>
<rect x="386.94792051231076" y="784.3157894736842" width="68.05207948768923" height="24.0" fill="#199d76" opacity="0.78" rx="8"/>
<rect x="740" y="784.3157894736842" width="13.676421509698022" height="24.0" fill="#e64946" opacity="0.78" rx="8"/>
<rect x="512" y="784.3157894736842" width="166" height="24.0" rx="9" fill="#ffffff" stroke="#d3deea"/>
<rect x="518" y="788.3157894736842" width="41.02868457356986" height="16.0" rx="7" fill="#f08c00" opacity="0.18"/>
<text x="595.0" y="795.3157894736842" font-size="14" font-weight="700" text-anchor="middle" fill="#172033">6,540.00</text>
<text x="595.0" y="809.3157894736842" font-size="11" text-anchor="middle" fill="#66768f">ES 6,588.99</text>
<circle cx="524" cy="796.3157894736842" r="4.5" fill="#f08c00" opacity="0.82"/>
<line x1="80" y1="759.4736842105262" x2="1130" y2="759.4736842105262" stroke="#eef2f7" stroke-width="1"/>
<rect x="373.375692215943" y="747.4736842105262" width="81.62430778405702" height="24.0" fill="#199d76" opacity="0.78" rx="8"/>
<rect x="740" y="747.4736842105262" width="31.13738718533006" height="24.0" fill="#e64946" opacity="0.78" rx="8"/>
<rect x="512" y="747.4736842105262" width="166" height="24.0" rx="9" fill="#ffffff" stroke="#d3deea"/>
<rect x="518" y="751.4736842105262" width="46.7863776462257" height="16.0" rx="7" fill="#f08c00" opacity="0.18"/>
<text x="595.0" y="758.4736842105262" font-size="14" font-weight="700" text-anchor="middle" fill="#172033">6,545.00</text>
<text x="595.0" y="772.4736842105262" font-size="11" text-anchor="middle" fill="#66768f">ES 6,593.99</text>
<circle cx="524" cy="759.4736842105262" r="4.5" fill="#f08c00" opacity="0.82"/>
<rect x="80" y="706.6315789473684" width="1050" height="32.0" fill="#ebfbee" opacity="0.70" rx="10"/>
<line x1="80" y1="722.6315789473684" x2="1130" y2="722.6315789473684" stroke="#eef2f7" stroke-width="1"/>
<rect x="278.27842700139155" y="710.6315789473684" width="176.72157299860845" height="24.0" fill="#199d76" opacity="0.78" rx="8"/>
<rect x="740" y="710.6315789473684" width="257.9230258554178" height="24.0" fill="#e64946" opacity="0.78" rx="8"/>
<rect x="512" y="710.6315789473684" width="166" height="24.0" rx="9" fill="#ffffff" stroke="#d3deea"/>
<rect x="518" y="714.6315789473684" width="84.0764778389088" height="16.0" rx="7" fill="#f08c00" opacity="0.18"/>
<text x="595.0" y="721.6315789473684" font-size="14" font-weight="700" text-anchor="middle" fill="#172033">6,550.00</text>
<text x="595.0" y="735.6315789473684" font-size="11" text-anchor="middle" fill="#66768f">ES 6,598.99</text>
<circle cx="524" cy="722.6315789473684" r="4.5" fill="#f08c00" opacity="0.82"/>
<line x1="80" y1="685.7894736842105" x2="1130" y2="685.7894736842105" stroke="#eef2f7" stroke-width="1"/>
<rect x="361.4872667764746" y="673.7894736842105" width="93.51273322352542" height="24.0" fill="#199d76" opacity="0.78" rx="8"/>
<rect x="740" y="673.7894736842105" width="18.29530080921537" height="24.0" fill="#e64946" opacity="0.78" rx="8"/>
<rect x="512" y="673.7894736842105" width="166" height="24.0" rx="9" fill="#ffffff" stroke="#d3deea"/>
<rect x="518" y="677.7894736842105" width="52.65215061459704" height="16.0" rx="7" fill="#f08c00" opacity="0.18"/>
<text x="595.0" y="684.7894736842105" font-size="14" font-weight="700" text-anchor="middle" fill="#172033">6,555.00</text>
<text x="595.0" y="698.7894736842105" font-size="11" text-anchor="middle" fill="#66768f">ES 6,603.99</text>
<circle cx="524" cy="685.7894736842105" r="4.5" fill="#f08c00" opacity="0.82"/>
<line x1="80" y1="648.9473684210527" x2="1130" y2="648.9473684210527" stroke="#eef2f7" stroke-width="1"/>
<rect x="289.8686174140232" y="636.9473684210527" width="165.1313825859768" height="24.0" fill="#199d76" opacity="0.78" rx="8"/>
<rect x="740" y="636.9473684210527" width="66.59996770315612" height="24.0" fill="#e64946" opacity="0.78" rx="8"/>
<rect x="512" y="636.9473684210527" width="166" height="24.0" rx="9" fill="#ffffff" stroke="#d3deea"/>
<rect x="518" y="640.9473684210527" width="84.31585334801154" height="16.0" rx="7" fill="#f08c00" opacity="0.18"/>
<text x="595.0" y="647.9473684210527" font-size="14" font-weight="700" text-anchor="middle" fill="#172033">6,560.00</text>
<text x="595.0" y="661.9473684210527" font-size="11" text-anchor="middle" fill="#66768f">ES 6,608.99</text>
<circle cx="524" cy="648.9473684210527" r="4.5" fill="#f08c00" opacity="0.82"/>
<line x1="80" y1="612.1052631578948" x2="1130" y2="612.1052631578948" stroke="#eef2f7" stroke-width="1"/>
<rect x="339.0098081674381" y="600.1052631578948" width="115.99019183256186" height="24.0" fill="#199d76" opacity="0.78" rx="8"/>
<rect x="740" y="600.1052631578948" width="59.91861195342077" height="24.0" fill="#e64946" opacity="0.78" rx="8"/>
<rect x="512" y="600.1052631578948" width="166" height="24.0" rx="9" fill="#ffffff" stroke="#d3deea"/>
<rect x="518" y="604.1052631578948" width="61.8163113029356" height="16.0" rx="7" fill="#f08c00" opacity="0.18"/>
<text x="595.0" y="611.1052631578948" font-size="14" font-weight="700" text-anchor="middle" fill="#172033">6,565.00</text>
<text x="595.0" y="625.1052631578948" font-size="11" text-anchor="middle" fill="#66768f">ES 6,613.99</text>
<circle cx="524" cy="612.1052631578948" r="4.5" fill="#f08c00" opacity="0.82"/>
<rect x="80" y="559.2631578947369" width="1050" height="32.0" fill="#ebfbee" opacity="0.70" rx="10"/>
<line x1="80" y1="575.2631578947369" x2="1130" y2="575.2631578947369" stroke="#eef2f7" stroke-width="1"/>
<rect x="285.7875287535853" y="563.2631578947369" width="169.21247124641468" height="24.0" fill="#199d76" opacity="0.78" rx="8"/>
<rect x="740" y="563.2631578947369" width="158.677193045413" height="24.0" fill="#e64946" opacity="0.78" rx="8"/>
<rect x="512" y="563.2631578947369" width="166" height="24.0" rx="9" fill="#ffffff" stroke="#d3deea"/>
<rect x="518" y="567.2631578947369" width="83.50935102149919" height="16.0" rx="7" fill="#f08c00" opacity="0.18"/>
<text x="595.0" y="574.2631578947369" font-size="14" font-weight="700" text-anchor="middle" fill="#172033">6,570.00</text>
<text x="595.0" y="588.2631578947369" font-size="11" text-anchor="middle" fill="#66768f">ES 6,618.99</text>
<circle cx="524" cy="575.2631578947369" r="4.5" fill="#f08c00" opacity="0.82"/>
<rect x="80" y="522.421052631579" width="1050" height="32.0" fill="#ebfbee" opacity="0.70" rx="10"/>
<line x1="80" y1="538.421052631579" x2="1130" y2="538.421052631579" stroke="#eef2f7" stroke-width="1"/>
<rect x="248.7730135177349" y="526.421052631579" width="206.2269864822651" height="24.0" fill="#199d76" opacity="0.78" rx="8"/>
<rect x="740" y="526.421052631579" width="86.88432347083415" height="24.0" fill="#e64946" opacity="0.78" rx="8"/>
<rect x="512" y="526.421052631579" width="166" height="24.0" rx="9" fill="#ffffff" stroke="#d3deea"/>
<rect x="518" y="530.421052631579" width="102.70211647383577" height="16.0" rx="7" fill="#f08c00" opacity="0.18"/>
<text x="595.0" y="537.421052631579" font-size="14" font-weight="700" text-anchor="middle" fill="#172033">6,575.00</text>
<text x="595.0" y="551.421052631579" font-size="11" text-anchor="middle" fill="#66768f">ES 6,623.99</text>
<circle cx="524" cy="538.421052631579" r="4.5" fill="#f08c00" opacity="0.82"/>
<line x1="80" y1="501.57894736842104" x2="1130" y2="501.57894736842104" stroke="#eef2f7" stroke-width="1"/>
<rect x="245.34457799676252" y="489.57894736842104" width="209.65542200323748" height="24.0" fill="#199d76" opacity="0.78" rx="8"/>
<rect x="740" y="489.57894736842104" width="104.09832594692553" height="24.0" fill="#e64946" opacity="0.78" rx="8"/>
<rect x="512" y="489.57894736842104" width="166" height="24.0" rx="9" fill="#ffffff" stroke="#d3deea"/>
<rect x="518" y="493.57894736842104" width="103.78233016079727" height="16.0" rx="7" fill="#f08c00" opacity="0.18"/>
<text x="595.0" y="500.57894736842104" font-size="14" font-weight="700" text-anchor="middle" fill="#172033">6,580.00</text>
<text x="595.0" y="514.578947368421" font-size="11" text-anchor="middle" fill="#66768f">ES 6,628.99</text>
<circle cx="524" cy="501.57894736842104" r="4.5" fill="#f08c00" opacity="0.82"/>
<line x1="80" y1="464.7368421052631" x2="1130" y2="464.7368421052631" stroke="#eef2f7" stroke-width="1"/>
<rect x="327.88133288842187" y="452.7368421052631" width="127.11866711157813" height="24.0" fill="#199d76" opacity="0.78" rx="8"/>
<rect x="740" y="452.7368421052631" width="73.33472090144082" height="24.0" fill="#e64946" opacity="0.78" rx="8"/>
<rect x="512" y="452.7368421052631" width="166" height="24.0" rx="9" fill="#ffffff" stroke="#d3deea"/>
<rect x="518" y="456.7368421052631" width="66.5636329317096" height="16.0" rx="7" fill="#f08c00" opacity="0.18"/>
<text x="595.0" y="463.7368421052631" font-size="14" font-weight="700" text-anchor="middle" fill="#172033">6,585.00</text>
<text x="595.0" y="477.7368421052631" font-size="11" text-anchor="middle" fill="#66768f">ES 6,633.99</text>
<circle cx="524" cy="464.7368421052631" r="4.5" fill="#f08c00" opacity="0.82"/>
<rect x="80" y="411.89473684210526" width="1050" height="32.0" fill="#fff5f5" opacity="0.78" rx="10"/>
<line x1="80" y1="427.89473684210526" x2="1130" y2="427.89473684210526" stroke="#eef2f7" stroke-width="1"/>
<rect x="307.4159046374918" y="415.89473684210526" width="147.5840953625082" height="24.0" fill="#199d76" opacity="0.78" rx="8"/>
<rect x="740" y="415.89473684210526" width="303.8047835214325" height="24.0" fill="#e64946" opacity="0.78" rx="8"/>
<rect x="512" y="415.89473684210526" width="166" height="24.0" rx="9" fill="#ffffff" stroke="#d3deea"/>
<rect x="518" y="419.89473684210526" width="69.27889644898079" height="16.0" rx="7" fill="#f08c00" opacity="0.18"/>
<text x="595.0" y="426.89473684210526" font-size="14" font-weight="700" text-anchor="middle" fill="#172033">6,590.00</text>
<text x="595.0" y="440.89473684210526" font-size="11" text-anchor="middle" fill="#66768f">ES 6,638.99</text>
<circle cx="524" cy="427.89473684210526" r="4.5" fill="#f08c00" opacity="0.82"/>
<line x1="80" y1="391.0526315789474" x2="1130" y2="391.0526315789474" stroke="#eef2f7" stroke-width="1"/>
<rect x="359.6547688353733" y="379.0526315789474" width="95.34523116462668" height="24.0" fill="#199d76" opacity="0.78" rx="8"/>
<rect x="740" y="379.0526315789474" width="66.27958301186013" height="24.0" fill="#e64946" opacity="0.78" rx="8"/>
<rect x="512" y="379.0526315789474" width="166" height="24.0" rx="9" fill="#ffffff" stroke="#d3deea"/>
<rect x="518" y="383.0526315789474" width="52.09594884079763" height="16.0" rx="7" fill="#f08c00" opacity="0.18"/>
<text x="595.0" y="390.0526315789474" font-size="14" font-weight="700" text-anchor="middle" fill="#172033">6,595.00</text>
<text x="595.0" y="404.0526315789474" font-size="11" text-anchor="middle" fill="#66768f">ES 6,643.99</text>
<circle cx="524" cy="391.0526315789474" r="4.5" fill="#f08c00" opacity="0.82"/>
<rect x="80" y="338.2105263157895" width="1050" height="32.0" fill="#fff5f5" opacity="0.78" rx="10"/>
<line x1="80" y1="354.2105263157895" x2="1130" y2="354.2105263157895" stroke="#eef2f7" stroke-width="1"/>
<rect x="98.0" y="342.2105263157895" width="357.0" height="24.0" fill="#199d76" opacity="0.78" rx="8"/>
<rect x="740" y="342.2105263157895" width="372.0" height="24.0" fill="#e64946" opacity="0.78" rx="8"/>
<rect x="512" y="342.2105263157895" width="166" height="24.0" rx="9" fill="#ffffff" stroke="#d3deea"/>
<rect x="518" y="346.2105263157895" width="164.0" height="16.0" rx="7" fill="#f08c00" opacity="0.18"/>
<text x="595.0" y="353.2105263157895" font-size="14" font-weight="700" text-anchor="middle" fill="#172033">6,600.00</text>
<text x="595.0" y="367.2105263157895" font-size="11" text-anchor="middle" fill="#66768f">ES 6,648.99</text>
<circle cx="524" cy="354.2105263157895" r="4.5" fill="#f08c00" opacity="0.82"/>
<line x1="80" y1="317.36842105263156" x2="1130" y2="317.36842105263156" stroke="#eef2f7" stroke-width="1"/>
<rect x="430.1898872575469" y="305.36842105263156" width="24.810112742453082" height="24.0" fill="#199d76" opacity="0.78" rx="8"/>
<rect x="740" y="305.36842105263156" width="57.902858270683424" height="24.0" fill="#e64946" opacity="0.78" rx="8"/>
<rect x="512" y="305.36842105263156" width="166" height="24.0" rx="9" fill="#ffffff" stroke="#d3deea"/>
<rect x="518" y="309.36842105263156" width="19.765623357094626" height="16.0" rx="7" fill="#f08c00" opacity="0.18"/>
<text x="595.0" y="316.36842105263156" font-size="14" font-weight="700" text-anchor="middle" fill="#172033">6,605.00</text>
<text x="595.0" y="330.36842105263156" font-size="11" text-anchor="middle" fill="#66768f">ES 6,653.99</text>
<circle cx="524" cy="317.36842105263156" r="4.5" fill="#f08c00" opacity="0.82"/>
<line x1="80" y1="280.5263157894737" x2="1130" y2="280.5263157894737" stroke="#eef2f7" stroke-width="1"/>
<rect x="416.37476216170165" y="268.5263157894737" width="38.62523783829836" height="24.0" fill="#199d76" opacity="0.78" rx="8"/>
<rect x="740" y="268.5263157894737" width="68.08174690040012" height="24.0" fill="#e64946" opacity="0.78" rx="8"/>
<rect x="512" y="268.5263157894737" width="166" height="24.0" rx="9" fill="#ffffff" stroke="#d3deea"/>
<rect x="518" y="272.5263157894737" width="25.848336477154827" height="16.0" rx="7" fill="#f08c00" opacity="0.18"/>
<text x="595.0" y="279.5263157894737" font-size="14" font-weight="700" text-anchor="middle" fill="#172033">6,610.00</text>
<text x="595.0" y="293.5263157894737" font-size="11" text-anchor="middle" fill="#66768f">ES 6,658.99</text>
<circle cx="524" cy="280.5263157894737" r="4.5" fill="#f08c00" opacity="0.82"/>
<line x1="80" y1="243.68421052631578" x2="1130" y2="243.68421052631578" stroke="#eef2f7" stroke-width="1"/>
<rect x="427.259918212024" y="231.68421052631578" width="27.740081787976035" height="24.0" fill="#199d76" opacity="0.78" rx="8"/>
<rect x="740" y="231.68421052631578" width="80.96388136292681" height="24.0" fill="#e64946" opacity="0.78" rx="8"/>
<rect x="512" y="231.68421052631578" width="166" height="24.0" rx="9" fill="#ffffff" stroke="#d3deea"/>
<rect x="518" y="235.68421052631578" width="20.44473187150912" height="16.0" rx="7" fill="#f08c00" opacity="0.18"/>
<text x="595.0" y="242.68421052631578" font-size="14" font-weight="700" text-anchor="middle" fill="#172033">6,615.00</text>
<text x="595.0" y="256.6842105263158" font-size="11" text-anchor="middle" fill="#66768f">ES 6,663.99</text>
<circle cx="524" cy="243.68421052631578" r="4.5" fill="#f08c00" opacity="0.82"/>
<line x1="80" y1="206.8421052631579" x2="1130" y2="206.8421052631579" stroke="#eef2f7" stroke-width="1"/>
<rect x="408.78751100445857" y="194.8421052631579" width="46.21248899554142" height="24.0" fill="#199d76" opacity="0.78" rx="8"/>
<rect x="740" y="194.8421052631579" width="152.68332944575027" height="24.0" fill="#e64946" opacity="0.78" rx="8"/>
<rect x="512" y="194.8421052631579" width="166" height="24.0" rx="9" fill="#ffffff" stroke="#d3deea"/>
<rect x="518" y="198.8421052631579" width="26.879582557934786" height="16.0" rx="7" fill="#f08c00" opacity="0.18"/>
<text x="595.0" y="205.8421052631579" font-size="14" font-weight="700" text-anchor="middle" fill="#172033">6,620.00</text>
<text x="595.0" y="219.8421052631579" font-size="11" text-anchor="middle" fill="#66768f">ES 6,668.99</text>
<circle cx="524" cy="206.8421052631579" r="4.5" fill="#f08c00" opacity="0.82"/>
<rect x="80" y="154.0" width="1050" height="32.0" fill="#fff5f5" opacity="0.78" rx="10"/>
<line x1="80" y1="170.0" x2="1130" y2="170.0" stroke="#eef2f7" stroke-width="1"/>
<rect x="413.2648382699571" y="158.0" width="41.73516173004289" height="24.0" fill="#199d76" opacity="0.78" rx="8"/>
<rect x="740" y="158.0" width="223.00109450415374" height="24.0" fill="#e64946" opacity="0.78" rx="8"/>
<rect x="512" y="158.0" width="166" height="24.0" rx="9" fill="#ffffff" stroke="#d3deea"/>
<rect x="518" y="162.0" width="22.756549135459647" height="16.0" rx="7" fill="#f08c00" opacity="0.18"/>
<text x="595.0" y="169.0" font-size="14" font-weight="700" text-anchor="middle" fill="#172033">6,625.00</text>
<text x="595.0" y="183.0" font-size="11" text-anchor="middle" fill="#66768f">ES 6,673.99</text>
<circle cx="524" cy="170.0" r="4.5" fill="#f08c00" opacity="0.82"/>
<text x="98" y="520.421052631579" font-size="12" font-weight="700" fill="#18794e">支撑减速位: ES 6,623.99</text>
<text x="98" y="704.6315789473684" font-size="12" font-weight="700" fill="#18794e">支撑减速位: ES 6,598.99</text>
<text x="98" y="557.2631578947369" font-size="12" font-weight="700" fill="#18794e">支撑减速位: ES 6,618.99</text>
<text x="740" y="336.2105263157895" font-size="12" font-weight="700" fill="#c92a2a">阻力减速位: ES 6,648.99</text>
<text x="740" y="409.89473684210526" font-size="12" font-weight="700" fill="#c92a2a">阻力减速位: ES 6,638.99</text>
<text x="740" y="152.0" font-size="12" font-weight="700" fill="#c92a2a">阻力减速位: ES 6,673.99</text>
<line x1="70" y1="516.2435789473698" x2="1140" y2="516.2435789473698" stroke="#1971c2" stroke-width="3"/>
<rect x="518" y="486.24357894736977" width="185" height="24" rx="12" fill="#dbeafe"/>
<text x="610" y="502.24357894736977" font-size="13" font-weight="700" text-anchor="middle" fill="#1d4ed8">当前价 SPX 6,578.01</text>
<line x1="70" y1="870.0" x2="1140" y2="870.0" stroke="#f08c00" stroke-width="2.5" stroke-dasharray="10 8"/>
<rect x="508" y="840.0" width="172" height="24" rx="12" fill="#ffedd5"/>
<text x="594" y="856.0" font-size="13" font-weight="700" text-anchor="middle" fill="#c2410c">Zero Gamma 6,530.00</text>
<rect x="1180" y="170" width="490" height="700" rx="24" fill="#ffffff" stroke="#d6deeb"/>
<text x="1208" y="204" font-size="22" font-weight="700" fill="#172033">图上提醒</text>
<text x="1208" y="238" font-size="15" fill="#4b5b76">左边绿色越长，说明该价位下方支撑越强。</text>
<text x="1208" y="262" font-size="15" fill="#4b5b76">中间每一行是一个 SPX strike，下面标 ES 映射位。</text>
<text x="1208" y="286" font-size="15" fill="#4b5b76">右边红色越长，说明该价位上方阻力越强。</text>
<text x="1208" y="310" font-size="15" fill="#4b5b76">蓝线是当前价，金色虚线是 Zero Gamma 分界。</text>
<text x="1208" y="334" font-size="15" fill="#4b5b76">橙色和红色带子是破位后更容易加速的区间。</text>
<text x="1208" y="380" font-size="20" font-weight="700" fill="#172033">到达后容易慢下来</text>
<text x="1208" y="410" font-size="15" fill="#b42318">阻力减速: ES 6,648.99 | 压力 $241.16M</text>
<text x="1208" y="434" font-size="15" fill="#b42318">阻力减速: ES 6,638.99 | 压力 $196.95M</text>
<text x="1208" y="458" font-size="15" fill="#b42318">阻力减速: ES 6,673.99 | 压力 $144.57M</text>
<text x="1208" y="482" font-size="15" fill="#1d6f31">支撑减速: ES 6,623.99 | 支撑 $2.11B</text>
<text x="1208" y="506" font-size="15" fill="#1d6f31">支撑减速: ES 6,598.99 | 支撑 $1.81B</text>
<text x="1208" y="530" font-size="15" fill="#1d6f31">支撑减速: ES 6,618.99 | 支撑 $1.73B</text>
<text x="1208" y="574" font-size="20" font-weight="700" fill="#172033">破位后容易加速</text>
<text x="1208" y="606" font-size="15" fill="#9c5f00">上破 ES 6,638.99 后，先看 ES 6,648.99</text>
<text x="1208" y="630" font-size="15" fill="#9c5f00">上破 ES 6,648.99 后，先看 ES 6,673.99</text>
<text x="1208" y="654" font-size="15" fill="#c2410c">下破 ES 6,623.99 后，先看 ES 6,618.99</text>
<text x="1208" y="678" font-size="15" fill="#c2410c">下破 ES 6,618.99 后，先看 ES 6,598.99</text>
<text x="1208" y="730" font-size="20" font-weight="700" fill="#172033">环境说明</text>
<text x="1208" y="760" font-size="16" fill="#4b5b76">负 Gamma / 更容易扩张和加速</text>
<text x="1208" y="786" font-size="16" fill="#4b5b76">净 GEX: -$22.03B</text>
<text x="1208" y="812" font-size="16" fill="#4b5b76">Zero Gamma: SPX 6,530.00 | ES 6,578.99</text>
<text x="1208" y="838" font-size="16" fill="#4b5b76">图里只保留了当前最关键的一段价位，不会把整条链都铺开。</text>
</svg>