<svg xmlns="http://www.w3.org/2000/svg" width="1760" height="980" viewBox="0 0 1760 980" font-family="Microsoft YaHei, Segoe UI, Arial, sans-serif">
<defs><linearGradient id="bg" x1="0" x2="0" y1="0" y2="1"><stop offset="0%" stop-color="#f8fafc"/><stop offset="100%" stop-color="#eef2f7"/></linearGradient></defs>
<rect x="0" y="0" width="1760" height="980" fill="url(#bg)"/>
<text x="60" y="54" font-size="30" font-weight="700" fill="#172033">SPX Gamma 价位图</text>
<text x="60" y="86" font-size="16" fill="#50607d">SPX 5,010.00 | ES 5,051.00 | 正 Gamma / 更偏回归均值</text>
<text x="60" y="112" font-size="14" fill="#6a7892">报价 2026-03-19 11:00:00 | DTE &lt;= 30 | 到期日 2026-03-19, 2026-04-16</text>
<rect x="60" y="130" width="250" height="30" rx="15" fill="#dbeafe"/>
<text x="78" y="150" font-size="13" font-weight="700" fill="#1d4ed8">当前价: SPX 5,010.00</text>
<rect x="330" y="130" width="260" height="30" rx="15" fill="#ffedd5"/>
<text x="348" y="150" font-size="13" font-weight="700" fill="#c2410c">Zero Gamma: ES 5,068.78</text>
<rect x="610" y="130" width="230" height="30" rx="15" fill="#ede9fe"/>
<text x="628" y="150" font-size="13" font-weight="700" fill="#6d28d9">净 GEX: $247.39M</text>
<rect x="60" y="210" width="1150" height="710" rx="24" fill="#ffffff" stroke="#d6deeb"/>
<rect x="1240" y="210" width="480" height="710" rx="24" fill="#ffffff" stroke="#d6deeb"/>
<text x="84" y="240" font-size="14" fill="#5b6780">减速带看反应，破位区看速度。</text>
<text x="298" y="244" font-size="16" font-weight="700" fill="#18794e">支撑 GEX</text>
<text x="554" y="244" font-size="16" font-weight="700" fill="#1f3b5c">价格梯子</text>
<text x="820" y="244" font-size="16" font-weight="700" fill="#c92a2a">阻力 GEX</text>
<line x1="250" y1="258" x2="250" y2="892" stroke="#eef2f7" stroke-width="1"/>
<line x1="1014" y1="258" x2="1014" y2="892" stroke="#eef2f7" stroke-width="1"/>
<rect x="80" y="660.0" width="1110" height="226.0" fill="#ebfbee" opacity="0.82" rx="18"/>
<line x1="80" y1="660.0" x2="1190" y2="660.0" stroke="#87d6a5" stroke-width="1.5" stroke-dasharray="8 6"/>
<line x1="80" y1="886" x2="1190" y2="886" stroke="#87d6a5" stroke-width="1.5" stroke-dasharray="8 6"/>
<rect x="80" y="268" width="1110" height="226.0" fill="#fff5f5" opacity="0.88" rx="18"/>
<line x1="80" y1="268" x2="1190" y2="268" stroke="#ffb3b3" stroke-width="1.5" stroke-dasharray="8 6"/>
<line x1="80" y1="494.0" x2="1190" y2="494.0" stroke="#ffb3b3" stroke-width="1.5" stroke-dasharray="8 6"/>
<rect x="482" y="268" width="300" height="226.0" fill="#fff4e6" opacity="0.82" rx="16" stroke="#f08c00" stroke-width="1.2"/>
<rect x="482" y="660.0" width="300" height="226.0" fill="#fff0f0" opacity="0.84" rx="16" stroke="#e03131" stroke-width="1.2"/>
<line x1="80" y1="892.0" x2="1190" y2="892.0" stroke="#edf1f7" stroke-width="1"/>
<text x="252" y="897.0" font-size="12" text-anchor="end" fill="#637188">5,000</text>
<text x="1012" y="897.0" font-size="12" fill="#637188">5,041</text>
<line x1="80" y1="682.0" x2="1190" y2="682.0" stroke="#1971c2" stroke-width="3" opacity="0.75"/>
<line x1="80" y1="308.6687711386676" x2="1190" y2="308.6687711386676" stroke="#f08c00" stroke-width="2.5" stroke-dasharray="10 8" opacity="0.85"/>
<rect x="502" y="270" width="260" height="614" rx="18" fill="#f3f7fc" stroke="#d7e0ed"/>
<line x1="80" y1="892.0" x2="1190" y2="892.0" stroke="#eef2f7" stroke-width="1"/>
<rect x="262.0" y="880.0" width="210.0" height="24.0" fill="#199d76" opacity="0.80" rx="8"/>
<rect x="792" y="880.0" width="4.914076782449727" height="24.0" fill="#e64946" opacity="0.80" rx="8"/>
<rect x="516" y="880.0" width="232" height="24.0" rx="10" fill="#ffffff" stroke="#d3deea"/>
<rect x="522" y="884.0" width="143.3406989853439" height="16.0" rx="7" fill="#f08c00" opacity="0.18"/>
<circle cx="532" cy="892.0" r="4.5" fill="#f08c00" opacity="0.85"/>
<text x="632.0" y="891.0" font-size="14" font-weight="700" text-anchor="middle" fill="#172033">ES 5,041</text>
<text x="632.0" y="905.0" font-size="11" text-anchor="middle" fill="#66768f">SPX 5,000</text>
<line x1="80" y1="682.0" x2="1190" y2="682.0" stroke="#eef2f7" stroke-width="1"/>
<rect x="265.0" y="670.0" width="207.0" height="24.0" fill="#199d76" opacity="0.80" rx="8"/>
<rect x="792" y="670.0" width="134.3692870201097" height="24.0" fill="#e64946" opacity="0.80" rx="8"/>
<rect x="516" y="670.0" width="232" height="24.0" rx="10" fill="#ffffff" stroke="#d3deea"/>
<rect x="522" y="674.0" width="48.37429537767757" height="16.0" rx="7" fill="#1f9d74" opacity="0.18"/>
<circle cx="532" cy="682.0" r="4.5" fill="#1f9d74" opacity="0.85"/>
<text x="632.0" y="681.0" font-size="14" font-weight="700" text-anchor="middle" fill="#172033">ES 5,051</text>
<text x="632.0" y="695.0" font-size="11" text-anchor="middle" fill="#66768f">SPX 5,010</text>
<line x1="80" y1="472.0" x2="1190" y2="472.0" stroke="#eef2f7" stroke-width="1"/>
<rect x="397.75" y="460.0" width="74.24999999999999" height="24.0" fill="#199d76" opacity="0.80" rx="8"/>
<rect x="792" y="460.0" width="152.02925045703842" height="24.0" fill="#e64946" opacity="0.80" rx="8"/>
<rect x="516" y="460.0" width="232" height="24.0" rx="10" fill="#ffffff" stroke="#d3deea"/>
<rect x="522" y="464.0" width="157.98872604284102" height="16.0" rx="7" fill="#1f9d74" opacity="0.18"/>
<circle cx="532" cy="472.0" r="4.5" fill="#1f9d74" opacity="0.85"/>
<text x="632.0" y="471.0" font-size="14" font-weight="700" text-anchor="middle" fill="#172033">ES 5,061</text>
<text x="632.0" y="485.0" font-size="11" text-anchor="middle" fill="#66768f">SPX 5,020</text>
<line x1="80" y1="262.0" x2="1190" y2="262.0" stroke="#eef2f7" stroke-width="1"/>
<rect x="394.375" y="250.0" width="77.625" height="24.0" fill="#199d76" opacity="0.80" rx="8"/>
<rect x="792" y="250.0" width="210.0" height="24.0" fill="#e64946" opacity="0.80" rx="8"/>
<rect x="516" y="250.0" width="232" height="24.0" rx="10" fill="#ffffff" stroke="#d3deea"/>
<rect x="522" y="254.0" width="230.0" height="16.0" rx="7" fill="#1f9d74" opacity="0.18"/>
<circle cx="532" cy="262.0" r="4.5" fill="#1f9d74" opacity="0.85"/>
<text x="632.0" y="261.0" font-size="14" font-weight="700" text-anchor="middle" fill="#172033">ES 5,071</text>
<text x="632.0" y="275.0" font-size="11" text-anchor="middle" fill="#66768f">SPX 5,030</text>
<line x1="248" y1="660.0" x2="248" y2="886.0" stroke="#2b8a3e" stroke-width="2.5" opacity="0.9"/>
<line x1="248" y1="660.0" x2="260" y2="660.0" stroke="#2b8a3e" stroke-width="2.5" opacity="0.9"/>
<line x1="248" y1="886.0" x2="260" y2="886.0" stroke="#2b8a3e" stroke-width="2.5" opacity="0.9"/>
<line x1="248" y1="773.0" x2="238" y2="773.0" stroke="#2b8a3e" stroke-width="2" opacity="0.75"/>
<circle cx="248" cy="773.0" r="4.5" fill="#2b8a3e" opacity="0.88"/>
<rect x="88" y="736.5" width="150" height="73" rx="16" fill="#ebfbee" stroke="#2b8a3e" stroke-width="1.4"/>
<text x="163.0" y="760.5" font-size="13" font-weight="700" fill="#1f6d31" text-anchor="middle">下方支撑带</text>
<text x="163.0" y="777.5" font-size="13" font-weight="700" fill="#1f6d31" text-anchor="middle">ES 5,041 - 5,051</text>
<text x="163.0" y="794.5" font-size="13" font-weight="700" fill="#1f6d31" text-anchor="middle">到位易承接</text>
<line x1="248" y1="660.0" x2="248" y2="886.0" stroke="#e03131" stroke-width="2.5" opacity="0.9"/>
<line x1="248" y1="660.0" x2="260" y2="660.0" stroke="#e03131" stroke-width="2.5" opacity="0.9"/>
<line x1="248" y1="886.0" x2="260" y2="886.0" stroke="#e03131" stroke-width="2.5" opacity="0.9"/>
<line x1="248" y1="773.0" x2="238" y2="862.0" stroke="#e03131" stroke-width="2" opacity="0.75"/>
<circle cx="248" cy="773.0" r="4.5" fill="#e03131" opacity="0.88"/>
<rect x="88" y="825.5" width="150" height="73" rx="16" fill="#fff5f5" stroke="#e03131" stroke-width="1.4"/>
<text x="163.0" y="849.5" font-size="13" font-weight="700" fill="#9d2121" text-anchor="middle">下破加速区</text>
<text x="163.0" y="866.5" font-size="13" font-weight="700" fill="#9d2121" text-anchor="middle">破 ES 5,051</text>
<text x="163.0" y="883.5" font-size="13" font-weight="700" fill="#9d2121" text-anchor="middle">先看 ES 5,041</text>
<line x1="1016" y1="268.0" x2="1016" y2="494.0" stroke="#d9485f" stroke-width="2.5" opacity="0.9"/>
<line x1="1016" y1="268.0" x2="1004" y2="268.0" stroke="#d9485f" stroke-width="2.5" opacity="0.9"/>
<line x1="1016" y1="494.0" x2="1004" y2="494.0" stroke="#d9485f" stroke-width="2.5" opacity="0.9"/>
<line x1="1016" y1="381.0" x2="1026" y2="381.0" stroke="#d9485f" stroke-width="2" opacity="0.75"/>
<circle cx="1016" cy="381.0" r="4.5" fill="#d9485f" opacity="0.88"/>
<rect x="1026" y="344.5" width="156" height="73" rx="16" fill="#fff1f2" stroke="#d9485f" stroke-width="1.4"/>
<text x="1104.0" y="368.5" font-size="13" font-weight="700" fill="#8c1d2c" text-anchor="middle">上方阻力带</text>
<text x="1104.0" y="385.5" font-size="13" font-weight="700" fill="#8c1d2c" text-anchor="middle">ES 5,061 - 5,071</text>
<text x="1104.0" y="402.5" font-size="13" font-weight="700" fill="#8c1d2c" text-anchor="middle">到位易变慢</text>
<line x1="1016" y1="268.0" x2="1016" y2="494.0" stroke="#f08c00" stroke-width="2.5" opacity="0.9"/>
<line x1="1016" y1="268.0" x2="1004" y2="268.0" stroke="#f08c00" stroke-width="2.5" opacity="0.9"/>
<line x1="1016" y1="494.0" x2="1004" y2="494.0" stroke="#f08c00" stroke-width="2.5" opacity="0.9"/>
<line x1="1016" y1="381.0" x2="1026" y2="470.0" stroke="#f08c00" stroke-width="2" opacity="0.75"/>
<circle cx="1016" cy="381.0" r="4.5" fill="#f08c00" opacity="0.88"/>
<rect x="1026" y="433.5" width="156" height="73" rx="16" fill="#fff4e6" stroke="#f08c00" stroke-width="1.4"/>
<text x="1104.0" y="457.5" font-size="13" font-weight="700" fill="#9c5b00" text-anchor="middle">上破加速区</text>
<text x="1104.0" y="474.5" font-size="13" font-weight="700" fill="#9c5b00" text-anchor="middle">过 ES 5,061</text>
<text x="1104.0" y="491.5" font-size="13" font-weight="700" fill="#9c5b00" text-anchor="middle">先看 ES 5,071</text>
<text x="1268" y="246" font-size="24" font-weight="700" fill="#172033">交易提醒</text>
<text x="1268" y="274" font-size="14" fill="#5b6780">主图看结构，右侧看结论。</text>
<text x="1268" y="306" font-size="18" font-weight="700" fill="#172033">核心结论</text>
<text x="1268" y="332" font-size="15" font-weight="500" fill="#24334d">环境: 正 Gamma / 更偏回归均值</text>
<text x="1268" y="354" font-size="15" font-weight="500" fill="#24334d">上方减速: ES 5,061 / 5,071</text>
<text x="1268" y="376" font-size="15" font-weight="500" fill="#24334d">下方承接: ES 5,051 / 5,041</text>
<text x="1268" y="398" font-size="15" font-weight="500" fill="#24334d">上破计划: ES 5,061 -&gt; ES 5,071</text>
<text x="1268" y="420" font-size="15" font-weight="500" fill="#24334d">下破计划: ES 5,051 -&gt; ES 5,041</text>
<text x="1268" y="442" font-size="15" font-weight="500" fill="#24334d">Zero Gamma: ES 5,069</text>
<rect x="1260" y="476" width="440" height="1" fill="#e6ebf2"/>
</svg>